<svg width="512" height="512" viewBox="0 0 512 512" fill="none" xmlns="http://www.w3.org/2000/svg">
    <rect width="512" height="512" fill="#E5E5E5"/>
    <rect width="512" height="512" fill="#FCFCFC"/>
    <rect x="64" y="64" width="192" height="192" rx="64" fill="#FFDDAA"/>
    <path d="M159.512 211.4C155.093 211.4 151.512 207.818 151.512 203.4V117C151.512 112.582 155.093 109 159.512 109H160.888C165.307 109 168.888 112.582 168.888 117V203.4C168.888 207.818 165.307 211.4 160.888 211.4H159.512ZM117 168.888C112.582 168.888 109 165.307 109 160.888V159.512C109 155.093 112.582 151.512 117 151.512H203.4C207.818 151.512 211.4 155.093 211.4 159.512V160.888C211.4 165.307 207.818 168.888 203.4 168.888H117Z"
          fill="#281800"/>
    <path d="M309 168.377C304.582 168.377 301 164.795 301 160.377V159C301 154.582 304.582 151 309 151H395.4C399.818 151 403.4 154.582 403.4 159V160.377C403.4 164.795 399.818 168.377 395.4 168.377H309Z"
          fill="#534343"/>
    <path d="M204.897 397.743C201.773 400.867 196.707 400.867 193.583 397.743L114.657 318.817C111.533 315.693 111.533 310.627 114.657 307.503L115.503 306.657C118.627 303.533 123.693 303.533 126.817 306.657L205.743 385.583C208.867 388.707 208.867 393.773 205.743 396.897L204.897 397.743ZM126.817 397.743C123.693 400.867 118.627 400.867 115.503 397.743L114.657 396.897C111.533 393.773 111.533 388.707 114.657 385.583L193.583 306.657C196.707 303.533 201.773 303.533 204.897 306.657L205.743 307.503C208.867 310.627 208.867 315.693 205.743 318.817L126.817 397.743Z"
          fill="#534343"/>
    <rect x="256" y="256" width="192" height="192" rx="96" fill="#FFD9D9"/>
    <path d="M309 335.953C304.582 335.953 301 332.372 301 327.953V326C301 321.582 304.582 318 309 318H395.4C399.818 318 403.4 321.582 403.4 326V327.953C403.4 332.372 399.818 335.953 395.4 335.953H309ZM309 385.158C304.582 385.158 301 381.577 301 377.158V375.205C301 370.787 304.582 367.205 309 367.205H395.4C399.818 367.205 403.4 370.787 403.4 375.205V377.158C403.4 381.577 399.818 385.158 395.4 385.158H309Z"
          fill="#400007"/>
</svg>
